<mxfile host="65bd71144e">
    <diagram id="--HgWW8WFhINP8-IizZv" name="Page-1">
        <mxGraphModel dx="1086" dy="658" grid="1" gridSize="10" guides="1" tooltips="1" connect="1" arrows="1" fold="1" page="1" pageScale="1" pageWidth="850" pageHeight="1100" math="0" shadow="0">
            <root>
                <mxCell id="0"/>
                <mxCell id="1" parent="0"/>
                <mxCell id="2" value="http://ics2o.mths.ca" style="swimlane;whiteSpace=wrap;html=1;" parent="1" vertex="1">
                    <mxGeometry x="40" y="40" width="760" height="510" as="geometry"/>
                </mxCell>
                <mxCell id="3" value="&lt;h1 style=&quot;margin-top: 0px; line-height: 270%;&quot;&gt;&lt;span style=&quot;font-size: 30px;&quot;&gt;Pokemon API, with JS&lt;/span&gt;&lt;/h1&gt;" style="text;html=1;whiteSpace=wrap;overflow=hidden;rounded=0;" parent="2" vertex="1">
                    <mxGeometry x="20" y="20" width="620" height="70" as="geometry"/>
                </mxCell>
                <mxCell id="4" value="&lt;div&gt;&lt;span style=&quot;font-size: 26px;&quot;&gt;Click the button to get a random generation 1 pokemon&lt;/span&gt;&lt;/div&gt;" style="text;html=1;align=left;verticalAlign=middle;whiteSpace=wrap;rounded=0;" parent="2" vertex="1">
                    <mxGeometry x="70" y="90" width="630" height="47.5" as="geometry"/>
                </mxCell>
                <mxCell id="6" value="&lt;div&gt;&lt;span style=&quot;font-size: 26px;&quot;&gt;Pokemon: Bulbasaur&lt;/span&gt;&lt;/div&gt;" style="text;html=1;align=left;verticalAlign=middle;whiteSpace=wrap;rounded=0;" parent="2" vertex="1">
                    <mxGeometry x="240" y="362.5" width="260" height="47.5" as="geometry"/>
                </mxCell>
                <mxCell id="7" value="" style="shape=image;verticalLabelPosition=bottom;labelBackgroundColor=default;verticalAlign=top;aspect=fixed;imageAspect=0;image=data:image/jpeg,/9j/4AAQSkZJRgABAQAAAQABAAD/2wCEAAkGBxMTEhUTExMWFhUXGBcVFhgYFxUgGBoaHRgYGR0bGBgbICojGx0mHRgXITIiJSkrLi4uFx8zODMtNygtLisBCgoKDg0OGxAQGy0mICUtLS0uNS0tLS8tLS0tLS0vLTAtLSstLS0tLS0tLS0tLy0vLS4tLS0tLS0tLy0tLS0tLf/AABEIAJ8BPgMBEQACEQEDEQH/xAAcAAEAAQUBAQAAAAAAAAAAAAAABgIDBAUHCAH/xABCEAABAgMEBgULAwIGAwEAAAABAAIDBBEFEiExIkFRcYGRBgcTYaEUIzJCcoKSscHR8FJiojPhQ1OjssLxNIOTJP/EABsBAQACAwEBAAAAAAAAAAAAAAADBAECBQYH/8QAPBEAAgECAwQIBAUEAQQDAAAAAAECAxEEITEFEkGhUWFxgZGx0fAGEyLBFDJy4fEzQmKCI1KSorIVwuL/2gAMAwEAAhEDEQA/AO4oAgCAIAgKIsVrRVxAAzJIA5lAR60enUhBwMw152QwX+LagcSFo6kVxL1HZuKrfkpvvyXi7EYtHrZZlAlnHviODf4tvV5hRusuCOpR+HK0v6k0uzN/ZcyL2j1iT8XKI2ENkNgH8nVPIhaOrJnVo7AwkPzXl2u3lbzK+gfSWLDnoZjRoj2RfNPvve7Fx0TidTqCuoOKU5vezZFtfZtL8K5UoJOOeS1XH17juCtHjQgCAIAgCAIAgCAIAgMC3rUbLS8WO7JjSQNrsmt4uIHFYbsrktGlKtUjTjq3Y4DCt+abEMVsxFD3EucQ91CTtbkR3EUCqb8tbnvXsvCOmqbgssr6PxWZKbJ605plBGZDjDb6D+Yq3+IUirPicuv8OU5f0ZtdTzX2fmTKyusqSi0D3Ogu2RG6PxtqAN9FIqsWcWvsbF0s93eX+OfLXkSyVmocRofDe17Tk5rgRzCkOY007MvIYCAIAgCAIAgCAIAgCAIAgCAICmJEDQS4gAZkmg5lAR60enMhBwMw152Q6v8AFtQOJWjqRXEu0dm4qt+Sm+/JeLsRe0OtlmUCWc7viODf4tvV5hRusuCOrR+HK0v6k0uzN/ZcyM2l1hWhEFQ8QWEkDs4dAaZgPfeNR3EKN123upq/M6NDYuBjPck3KXQ3bkvUjE9NxYjvPRHxHUDtN5fg4VFDU03alq7vUt7MrYOtGTw0bbrs8rP1+/SY73gCpNAsWudGc4wV5Oxb7euTXHeKDxx8FmxH85v8sW+XnZ8hR51tbuqTzw+SZC1aXQufPLyZamGlorfdvrShzGVN3JZRBiIbsHvzdn0u3lZZ6eB6N6FW2JySgzFauc2j/bbou/kCdxCtp3R8/qw3JuK4G8WSMIAgCAIAgCAIAgCA5b1x21Uw5Rpy87E34hjf9zqeyoK0uB6T4dwu9OVeXDJdr18F5kLsuzWlrIkTJ7iGDVQGhJ2km8BsuHWQRe2ZhIVpb09Fz92KXxZt2vh3+Gw7s+L8PVczPtyDDhU7KhacKOaMcMd/HDFduph6e4lKCXV+54KliqqquUKkum93/BqLSlW3GRoYo15cxzdTXtDSQO4tc001G8MqLzOMoKjUstD6l8N7WqYyluVvzLj0rT08eq5gyk7EhPvQnPhkA1cxxbWhwoWmpwzB1qustDs1KKrSarQTWeq8nr5E2lOsCel3iHEfCmfRyxJvZBr2AaWrFp4rFHFOpHeS8cjgLZuCxNKVWm3TS1vZrz+5KrJ60pWJQRmPgO14X2V2VaL3NoVhVY8ShU2LiFHfpWnF6OL98rkxs+1IMcXoMVkQfscDTeBlxUiaehy50503uzTT68jLWTQIAgCAIAgCAIAgCAIDkXTbrCjGO6DKRLkNlQXgC89wNHUJBo0YUIxOdaUUFSo72R6fZexoTiqmIV7q6V+HS7d3vSJsl5ia04sR7xU3TEc5xJGd0E4AVGPfQVxpJhsJUxLsnl0sk2ptfBbHtGFNOb4LXvevvrV8WNIXXXb1D+4UHxZU7/krVfZUqabi791jm4L40jVmlWp2T4p3t2pmDHgmtDgQaEEaQLSaj9uw7ly9D2LiqqjOLyyfdrl0XLzozi0MLnFrSS1tTdBOZAyBKjUIqTlbNmVh6Sq/Nt9XT7yLERwaK+AzJ2DvW+pvUnGmrv8Adv1KYUPG870vBo2D6nWst8EaU6bvvz/N5dS+749lkXlgnCApeKj5b9SGsldWOgdSds3YsaUcdF47eEP3CgeN9LvwFWKT4HjNt4fdmqq4+1913HYFMcIIAgCAIAgCAIAgLE7NMhQ3xYhusY1z3E6gBUnkEMpXdkec7WtF0xGiR3ZxHF24ZNHBoA4KlJ3dz6PgsOsPQjTXBc+PM29lsEzLNgNIEeE55YwkDtWOJfRpOF9ri7DY7uXSwGJVO8ZaM8T8U7LqSrfPisn+ya5JrwMdtjTb3XfJ45dlpMeAN73UaBxXVliadruR4+OFqXso2KbbiMZDhyzHNfcL4kV7cWmK66KMOsNa0Cus1XBxdf5s7n0b4Z2dPD03VmtVZebfZpY06qnqj4MMsDmCMCDtCXIa+Hp16bpVFeL1AH34pcxh8PTw9JUqStFaFUJ5a4OaS1wyc0kEbiMQhJUpwqLdmk11q5JrK6fz8Cg7XtWj1YovfzFHcyVIqskcivsHC1M43i+rTwf2sTKyutaC6gmIL4Z/Uw327yMHDgCpFWXE4tf4fxEM6bUl4PnlzJlZXSGVmf6MdjzndBo/iw0cOSlUk9Dj1sPVou1SLXajZrJCEAQBAEAQBAEB5x6VWeZebjQz6kQ09h2k3+LmngqclaTR9A2fWVXC06i4Kz7sn6m9kZ50OWgxoQwY0wYlKVa6/EdU+0HgjbjsXd2XVh8twa9+/M+c/FOGrQx0ql3xz6np6dqsaiZiOmIjWQ2EuOixoxJP5ryAXRrVl+Z5I89h6D/JHNssW+5pmIl1wcAWtvDJxaxrXOG2rmuNddV5Ko7yZ9m2PCUMFBS633Nto10SIGipNAtEjoTqRhHeloW4TCTedn6o/SPudfLfl9BFThKUvmT14LoXq+PRp1u8sFgIAgCA+2daDpWYhTLc4Tw+g1tODm8QXD3lvF2dzk7Sw/zaUo+Hf+/memZaO17GvYatcA5pGRBFQeRVs8GXEAQBAEAQBAEAQEc6wrVZLyEZzgCXtMFrTkXPBGWsBt5xGxpWs3ZFrBUHXrxhw1fUlm/26zzr5KW4tLm+POlPkVW3j234aUM4Nrn5WfJn0RogzAduz+/glkZ+bWSaklJcf3X/AOTLNsueLj4sSn6XPeW8qkDijUuk0pfglK/y1F/pX205H1rgRgajuWh0oyUldO5UhsURIobiTT81BErkdSpGmryZi+XbGEjb+YeK23Sp+Ou7qLt77uZehTTHa6dx/MVhxZPTxVKej8S+sFgICiK4AFx1Y8dSJXZHVlGMG5K68zvPVrbJmrPgvcaxGAwohJqS5mFSdZLbrveVyLuj5ziqXy60o+8yULYrhAEAQBAEAQHJuuayqRIUwBg9phP3tqW8S0u+BV6yzTPUfDte+/QfavJ/Y55I2u+Aasi3HkXXAUN7ucwghw7iDmo47yd0dnE08LXioYiza8eu1szLjdJph7S1gDGuFHdnDhQr3tFoDiO7JbyqSerKNDZWFpy3oUnL9WS8MuaZqw2IdbW7gSeZp8lHkde1eWrS7M+bt5FTIABqSXHafoMhwS5mFCKe822+l/bgu5F1YJwgCAIAgLUdtR4HcfwHgsoiqxTWftP3fuOzdTdtdtJGA41iSzuz77hqWHcNJvuK1Td0eC2lQdKu+vP15k9W5zwgCAIAgCAIAgOK9bdt9vNtl2nQgDS2GIaE8tEcHqvVlnY9XsHCWg6r/u8l6y/9TT9G+jEWcbEcxzWBlBV1aOccaYZUFCT3haQp7yudDaO1o4OcYbu83m87WXgy3anROag+nALmj1maY34YjiAjpyQo7YwdfKTs/wDL105mhfBB79+Pzx8VrcvujCaus14r18GWHSdMW1B7j9Dj4rbe6SvLB2d4XXY/Wz5lN+KMKg7xjyp9CmRrv4hZXXhn4W+zKocmTi41Pf8Ab78kcug2hhHJ703799OXUjKEMbFpcuKnFK1i1ElGlZUmRVMLTmWfJ3t9F2GzVy1eK2unqV/w9Wl/Tll74cObMiV7VzXOuVayl5wIAxyoCcVhxRtTxVTeUZQv2fv6mLPzAOjsxd9PvwWYq2ZHi66laC7X9vXuPRfV7YvkkhBhOFHkdpE2336RB3CjfdVmKsrHh8TV+bVlMka2IAgCAIAgCAICO9P7L8okYzQKvaO1ZtvM0qDvIvN95aTjeNi5s/Efh8TCo9L59jyZ57lcC4a6knn9i3mqrPeYdbspR43fn6OJkLBaCAIAgCAIAgCA+EIYaTVmb/q0tjyW0Yd40ZH8w/ZeJFw7710bnlTU3Znmdt4fep7/ABX8PxVmegFYPKBAEAQBAEAQGr6TWuJWWixzTQbog63nBo4uI4VWJOyuTYehKvVjTjxft92p5z7Rzi57iXOeS4nWSTXma13kqm7tn0SjGFKn0JLwSWXLN9dztvRizPJpWHDODgL8Q/uOLse7Lc0K3GO6rHz7GYh4ivKq+L5cORrrL6f2fHddbMNYa0HaAsDtl1zqNNdla9y2KxtbRsSWmBWLCY+o9MYOp3PbQ+K1cU9SajiatB3pya7H7uQ6a6CQIjoglZijobrr2PF4NNMrwoR/LIqJ0ovRnco7fxFNL50bp6PRvO1+jq0I3aXRScg4uglzf1Q9MchpDiAo3TkjtYfbeEq5OW6/8suenM0lVodWLUldZo+oZCAszT6DKtdW3u44DisogxE7Rsle/vnp3mZOxnQYTIRhkf4kQgtJqcqgfSq2a4XKdKrKN6soOyy4X63br6rmmlY3nGxQA4h7S0HJxqHUP7aDEd620KcorEXbu97JWdteuz0S6Og6tZfXGW0E3LEbXQzhyJI/kFIqpya+xXH8srfqX/2jdeNia2R09s+YAuzDWk6omjjsBOiTuJWynFnNq4DEU1vON10rNeKuiStcCKg1ByIW5UPqAIAgCAIAQgPNvSyzPJZ2NCpRocS3ZdOk3foO/wBNVZqzaPc7PxHzaMKj6LPtjlzTv3GGozshAEAQBAEAQBAEBjTTTmCQcwRmCNnfT5LZMp4qmpRafH7eq8j0d0OtoTknBj+s5tH9z26Lv5A07iFbi7q58+rUnSqOD4G5WSIIAgCAIAgORdclt34sOTadFnnIvtEYA7mn/UGxQVZcD0uwcJe9WXHJdn9z8o97I/0Dsvt5tpIqyF512yoOgPiodzStKUbyOlt7FfKw/wAtazy7uP2XeTLrRtnyeRe1ppEj+ZbtAIN891GAiu0hWjxBwZAbCyLcmZU//njvhj9INWcWGrfBATexetmKzCZl2RAcS+FoPPeWmoceLUBMei/S+QiXmtmn33vc+5Muo4F2NxhOiWjUGkrCVjec962SWSWXvXpN/aViS8x/VhMeaelSjuDxQ+KNJ6m9HEVaLvTk12MilpdXDDjAjOZ+2ILzdwcKEcaqJ0VwO1h/iGvDKqlLk+WXIgVpyD4EV8GJdvsoDdNRiARQ4ajrAUEouLsz0+DxkMVS+ZC+ts+kosaAHxrzvQhi+eGX1O6iyjSrNttrsXvx8UYVszZcSTm41O7UPlyWY5u5ripKnTVNe/5ZYkYND7NR7xxd9BwSTNcHRSl+nL/Z5y+yM5aHSLL5VhxpQ7RgfBZ3mV5Yam3e1n0rJ8jLsy05uWNZeYe0Z3a0B3j0TxaVsp26iliNmxqZySl2qz/7o2fimdo6telrp6A4RadtCNH0FLzTk6mo1DgaYYVwrRWISuszyW0cGsPUW5fdel9VbJp9j5WJitznhAEAQBAcm67rKoYM0BqMJ+9tXN4lpijgFDVWaZ6HYdfKdJ/qXdlLxRzeEcPD8+fFV2etpu8ffvPUrQkCAIAgCAIAgCApiDDvzH54cURpNXWXv+dDoPUjbF2JGk3HRd5+FvwDxxFw+65WKT4HjNtYdQmqkdH/ACjr6mOGEAQBAEBiWtPsl4MSM/0YbS499MgO8mgG9Ybsrm9OnKpNQjq3Zd55vmpt8aLEjRDV0RxceJJw7tndRU27s+iYOhGlTUY6JWXr3u78DqvV3ZfYyoeRpxj2h9nJg5aXvlWacbRPGbXxX4jEya0jku7XnfuOa9bFs9vOmG06EuOzGwvNC887rfcKkOWQtAEAQAoDa2N0gm5YgS8aI3ICGDeYdgEN1W45YCqA9BRZ0wJbtZil5kMOiXcAXhoqG9xdgN4Qyk27I4dPzbnufEedN7i4nvOJpuHyVNvelc+hYegsJho0lrx7dW/TuRnXeylmtydF0ndzRkN390ehvSjed+EfP9tO4jsSJVxdnTEDvyaOJp4rZLKxSqVN6bn0aeUV3v7mwl4d1oHPvOs81o3dnUo0/lwUfHt4lxYJQgCA2vQy2/Ip2HFJpCfoRdlDSp4UDvd71JTlZnD2vg/m03bXVdq1X+y5pHogFWjxJ9QBAEAQGi6b2V5TJRoYFXBt9ntM0gBvpTitZq8Wi1gcR+HxEKnQ8+zjyPO0saVGzDlSn8S3kVUeeZ76h9LcOj7af+LXgZCwWggCAIAgCAIAgCA+2XaLpWZgzLc4TwSBrYahw4gvbxW8HZ3ONtLDfNpOPvpXO6PTMCM17WvaatcA5pGRBFQRwVs8MXEAQBAEBy/rntvRhybDi6kSLTYK3RzDne63aoasuB39hYXfqOq+GS7Xq+5c2iAWBZnlExDgjJx0qamDF27AEDvIUMI70j0e0sT+Gw0pLXRdr9Ne46/0htNspKxY9MITCWjVXJo7hUgK4fPTza95cS5xq5xLnHWSTUk7ySUBSgCAIAgJh1WWL5RPNe4VhwB2rtl6tIY+Krv/AFoCcdaVq0bDlWn0vORNwOiOJqfdCiqysjt7CwvzsR8x6Qz7+Hr3HP5CW7aM1nqjF24YnxFPdUCR6qtPNvo8/wCf/Vny3p2+5xGR0W+yPzxRZsxU/wCKju8X7ZrZSHUju0zvODRyqeKzJkGGp700uj6n35RXhd95btKbcH0aSKZ02n+3zUlOCauzl7a2nVpV1ToyturPtfDPoXmUwrUcPSAPgVl0VwIaHxFVjlWin1rJ+nkZkK0YZ13fa++SidOSO1Q2zhK2W9uv/LLnpzMoFaHUTuropiw7woidjSpDfjYm/RfrSiS0NkGahGIxgDWxGmjroyBrg6mWJadtc1PGpl0nlMZshbzlF7r619PdJXsuprI6LY3TuQmaXI7WuPqxNE7gTouO4lSKcWcetgMRSW9KOXSs14q5JAVuVD6gCAIDzj03svyWejQwKNvXmbLp02020a5w9xVZxzafu57XA1VXw0JS6N1/6+sW34Gf0kZL9lAiwmBkSKLzg06IAFHC7kDeNMKeiVw9myxPzalOpK8Y5Z634Z66Emz3W+Y4N5R17dFb3wNAuwdkIAgCAIAgCAIC1HZUb8OeXjTmsogrQ3ly9Odjs3U5bXbSPYuOnLu7M7bhqWHcBVvuK1TeR4PaNH5Vd9efrzJ6tygEAQFqamGw2OiPNGsaXOJ1ACpPIIZSbdkecLYtN01MRZh2b3Gg2NyA4ANb7veqcnd3PoWz8KsPSUOjz/u55diMno1ank0zDin0Qbr/AGHYOw109L3UpytI02thvxGFlFLNZru/a6OoWxNzLnQPJWQ40B5864lpF0ka7wwulxqK5cDZk5XW73nisPDDOFR1pNSS+m3F9fLoMG2OruQj1Ihdi410oJu8bmLD8K3KhCLY6pphlTLxWRh+l2g/cDi1x4tQEJtSyJiWNJiDEhd7m6J3PGieBQGCgCA7p1ZWSJWQEWJoui1jxCdTKaIOyjBWm1xQHOrctMx40SOc3u0QdTcmjgKeKqTe9I95szD/AIXCK/5nm+16eCtfvLsi3spdz/Wi6Ldt3WfzWscCxCO9NR4LN/b9+u5H5l159PVGe4Yn7clsskQYiSqVbPRa9i199hkQDdYXuzNXn6DgKBavN2RYpzVGhKtU65P7LuVkaRziSScziVbStkfPqtWVWbqS1bufFkjCAqhxC30SRuWGk9Sehia1D+lJrs08NDMhWm8ZgO8ConRXA7WH+Iq0cqsVLsyfp5GZCtFhzN3f98lG6UkdrD7bwlXJy3X/AJZc9OZcMsw4jDvaafLArS70L34elL64ZdcXbyyZsrJt6dlP6Ew66PUJ0fhNW+AWynYoYjZcKmcoqX/jLxWT70dC6J9aMSK4w5mCLwaXXmVBwLRi3EYh2YIyyU0Kl3Znm9obOjh4qUW9bWdr6X1Ts/BHUlKckIDlfXdZWEGaaMR5p3fSr2fKIPeChqrRnf2HXd50f9l2x1XeuRzKC6oGJIGA3Z4b614lVt1Jt9P8HrKEYpNx488suVn3layThAEAQBAEAQBAfHCoohrJXViQdWVs+TWiwONIcwOxfsvk6J+MU98qam7M8ztvD78PmcVn9pep39WDyoQBAc964rc7OXbLMOnGNXdzGn6upwa5RVZWVjs7Fw3zK/zHpHT9T08Ne44lPzZYQxuytTxH0WlKkpZs6e29sVMDKNGile17vPLTxyLlnTZfUHMU4g/9LFWnuPItbE2rLHU5fMVpR1to76GwkrTiQXVhRHwz+0kA8NY3rVSktGWcRgMJXb+ZCz6Vk+3LXtaJZZfWJMMoIrWRm7Rou5jR8FIq3Sjj1/h3jQnft9V6Ers3p1KRaBzjCdsiCg+IYc6KVTT0OJiNn4nD/wBSDt06rxRImuZEbgWvYdlC0/QrYpkXtjq7kI9SIXYux0oJu/woWH4aoCFS/VjejsDZhr4N8do17C19wYloLbzHOIBGYpWtMEBMesq1OylxAbg6MaYaobaV3VwHNaVJWidLZWF/E4mMXos32L1eRyyHBMSI2GNZp9zwH+5Vke2rSTeei9+Vl/sZnSCaF6630YYuN36z+bE1djRN06Lm9X9zQwIdaD9Rx9lufN1BwWzdinSp77Uf+p5/pWvi7LuN9ISDoxcGkCgxJrTHV81bwWAlit5p2t5lTb3xFT2VKnFw3nK7avayXHR6vTsZiz9gFvpQ6fuZlyH1C3q4HFUeF11Z8tTm0dq7C2h+b/jl1/TzX0+JqYlmH1XA78D+clVVbO0kT1vh6TW9h5qS4X9Vk/BGJFgub6TSPlzyUiknocbEYLEYf+rBrr4eKyLa2KoQBAXJa9eAaSCTq+u1aztbMvbOdb58IUZNXfDo45aaEhc6gqqZ9ClLdVzpXUnYlWxpx4rfPYwq/paavcO4voPcVmksrnh9sYj5lbc6PP3p1M6qpTjhAabphZXlMnGhAVcW3me23SbzIA4layV1Ys4Sv8ivCr0Plx5HnGWNDTVq3ZjwNPdVR55nv6P0yceHtrk7dxkrBaCAIAgCAIAgCAIDFm2nMEgjSBGYIzodWo8FtFlHF0lKLT7fs+Vj0h0RtkTcnBmNb2i+BqeNF4+IHhRW4u6ufP61N06jg+BuFkjPjnAAkmgGJKA869KrYM5ORY/qVuwxsYMG7sMd73KpOV3c97srCfIoqL11fa/RWXiaSblGxKVqCNY/ukJuOhJtDZlDHRSq6rRrUSkmGYNqXOIFTmTkB4+KxKbm8zShhcPszDzlHRJtvi7L3Y3UxYUQDAteNmR8cPFRqSOBhvi+jP6cRTa7M13p2fma6JBLMHNLd4+utbanpMHtHCYlf8FRPq4+DzLFXDPS/Pzap7UpaNp9ea5Z8iDf2jQf1RjVj/j9Ev8AtbcX3NGZIzsSEb0KI+Gf2uI5gYFRKclxJ6+zcLiFecFfqyfLXvuSWT6ezAbcjNbGacDmx9N7cPBSqt0nExHw5xoz7peq9CR2F0tki7Se+G4i6BEGA7mubgBlqHFSqcXocTEbOxND88HbpWa8UQfpfa3lEzEiDFjfNw/Zbs3mp4qCrK7seo2Jhvw+GdWSzln3cF3/AHRjWK3s4cSOc/QZvOZ8eS1Lu7vyUOnN9n7u/dY0c84ucGj8JSOSua4uTnNU4+2/QuybRi/V6LfZb9zUrEuglwkVnU4aL9K9XdkwsiVfDhjKrtJwNQanVUVyFBkvYYHDyoUVHjq+1+mh8Z25tFbQx0639t7R/StMuvXvMjtwX6QLQ3bleP7hgKDafXVnfW9nwOZufTlnf377CiflYb21LWlxwaddTgMRjTXwUeIw9KrH64p9H8lnBY7FYSd6FSUemzy71o+9GBMdHv0P4OFfEf3XMrbEg86Urdua9fM9XgvjrEw+nEwU10r6X90/BGhnLDIJrDIpm5mIrSuNN4zGtcyrgsVR4XXVn+/I71LamwtoW3n8uT6fofivpfezVRLMPquDt+B5/wDSrKtwaJq3w7K29Qmmuv1WT8EYkWC5vpNI+XPJSKSehxcRgsRh/wCpBrr4eKyMyx4VSXbMBvOfhTmoq0uB3PhzDXlKu+H0rzf25mxfDe9zIUMVe9zWMG1zjdb44+6ooq7O7j8QqVNt8M/T17j0pYNlslZeFLs9GGwMrtIzce8mp4q2lZWPn05OUnJ8TPWTUIAgPO3T+y/JZ+K0CjXG+zc6rwB3DzjeCqzVm0e12ZiPmYeE+K+l/wCua/8AG67WapRncCGQgCA+IYKO2GrHd98lmxH82PDPs9dCntSch+cMPFLGvzZP8q992XMvLBOEBbjjDOlMfv4VWUQ1k3DJ6e3yudD6jrXLHx5J7ia+ehV7qNeOIuHg5WKcuB4zbGFdKe9e/D05HX1KcYhfWtbnk8mYbfTj1hj2aafMEN99R1HaJ09k4b52ITayjm+u2i73buucTY2gp+VVVnvYx3VYqQ2MuyiwRWl7gAKkVyJyGPGvBYeh5r4odd4P5dGLak/qsr2Sz4dLt4EpBriMlGfMg4VwOIQEVtUNEVwYAAKA0yrmT404KRaH0/4XVd4Lfqyb3n9N3eyWXHruavy9l4tJpQ0rq5qT5UrXL3/zWDVeVGU7NO2enj1ddjAmrRcHOLTojLYfwqeFKO7mecx238RDGyjh5JwVkla6fT169ZtoRJaC4UJAqNhpiFVZ7Wm5OCclZ2z6mUvBcQxuZIA3nL6ngFlEVaV3b37Wb7UjaW3EEMNhD0YTce9x/PFZfQR0WowlVftLQjTKmp1uN0bzmeDa81toUY70m3xbsu16vuV/E2gZQUGFKU7qZLWMnGSkuGZ06uHhUoyo6Jpxy1s1bI2sv0git/qMa8bW6LuRwPMLvUdt8KkfA+dY34Eqxu8LUT6pZPx08jY2dbEFwAL7rziQ/A1ONATgdmB1LqYfGUaq+mWZ5LH7KxmElatTaXLxMp0BpfhhdFSW4VccB3Ggrn+oKdxTlkUlNqOfHy9+RceXNBNQ4AVNcDQd4wPILZ3ijVbsnYol4oaNMFpOJrlU6rwwwyz1LEZJLPIzKN39OfvoLU1JQ4jwC0GgvEjA44DEavSPAKKthqVZ2nFPz8S3g9o4vBfVQqOPY8vDR96NZaNihjHPa/RaC4hw1AVwI+xXJxOxoKLlTla3Tn75nrtn/HGJUlTxFNTvleOT8M0+RpmAAYCgXnj6ZGMYqyVkTHqfsbt510y4aEuKt74jxQfCyp7i4KelHieS25ir2prjm/t9u+529TnnAgCAIDmHXZZN6HBmWjFp7N3+9le681w99Q1Vozu7DrNTnR6VdfqjnzWpyyA4EYZat2Y8CFAz2FGSccva1XKxcWCUIC0bx7uXzx+SzkQP5jfR4fv5I+dhtP1+dfCiXHyb6v7+d+VisQx/3j81i5JuR95+ZWhuWokw0ZkbhieQWUmQzr045NmLEtMeqK/mwV+i2UOkpT2lDSCv76r87GPEnHnM3R3UH9/FZskVpYutN5uy99r5kp6rrNjxLQgRIDTdhPrEiU0WsoQ5pdtc0kAZ411VW8M3kcvaM6SpOL14dJ6MU550hfWp0dfNyl6C0ujQXX2tFKuacHtoc6ihprLAFpON0XcBinh6t75PJ9hwUx3McWvaWuGBGIIOwtdlzCr7p66ljLq6zXU/s/s0ZEOaB2fI8j9CVhxLsMVGWX7Pwf2bLweDhr2a+RWtidTi3ZPPn4F2DFczFji3ccOIyKFPF7MwmK/rU0306PxVmbCBbkQek1rvA8dXgFruo81ivg6nJ3oVGuqSvzVvI1hJOJxJxJ7ziVseuw9GNClGlDSKSXcaObkHMxvAitMah32PgrdOrvO1jw+19grDU5V1Uur8dXfzZg3wCKkVqCK+CmaTyZ56lOpTkqlPVd/mbez55znFrsQG3idm/fjyVWrTjFZHuNh7XxOLlKNZK0Ve6y8eBvrAhgOfHcMIYNPaOr5DeFEjrzvLLjJ/z9l3M1NqTBJxxJN4rMVxGMmoxVNe+gplIel7Au+8cXH5DmsSZnC0/r/Tl/s85fZHWei/Q+A6TYY8IOfE85eqQ5oNLoDhQ0ugGmVSVPGmt3M8rjdq1nipTpTaSyXRl1aO+pgWl1eAvIl4uTbxEUYVJ0QHNHc7UchtWHRXAtYf4iqxyrRT61k/TyIrbHR2ZlwTGgm5lfFHMxwFSMscNKiicJRO5htqYXFfQnm+DXtPxNbLRHw/6T3M7hi34TUclZo4+vS/LLxKWO+GNnYvNw3X0xy5acjYtt99AIjA4VFSw0NAa0uuwNTTXtXVpbaUsqkfA8hjPgevSvLDTUup5P0NxKWxBiGgeA79LtF3I58Krr0cXRrfkkjyGL2bisJLdr03HtRcl5cEFwq0uNRdwwyGGRwAOI1lbwgmrrK5XnN3s87Gq6TR3BrYNQb5vOwobrSDjTDF1Bq1rm7WrunR3L/m8j0vwls+OLx6m1lD6n0X4czQTUQBprx3a+eA4ry6PrWImowz9r99O8771c2H5JIwmOFIkTz0XbffjQ+yLrfdVuKsj55iqzrVZTfEk62K4QBAEBqulNl+UykaDrcw3fbGk0/EAtZK6sT4au6FaNVcHf1PN0HBxbl+VH/Ie6qjPoNFpSaWnDsea82u4yFgtBAfHOAxJpvQ1lJRV27GNFnmN11/NpwWyi2VamOow4399LMZ9pOPot/ONPqttzpKk9oTl+SPvvt9y3CZGjOuNDnuPqsBcT7oH0WUlwKlWvUavVmku3+FyJVZHVdaEehMEQm7YzgP4CrhxaFuoyOdUx2HjlnLy9PBE4sjqZgtoZiYe/8AbDAY3cSak8KLZU+kqVNq1HlBJc/25E2sjofIy1OyloYcPWcLz/jfU+K3UUtChUr1Kn55Nm7YwAUAAGwLJEVIAgNda9hS00LsxBhxNhc0Xh7Ls28CsNJ6m8KkoO8XYgFudTkB9TKxnQj+h+mzcDg4byXLR01wOhS2pUjlNKXL34EAtnoJaMrW9BMRg9aF5xnw0vAd5aFG4NcDq0NqU5Zb1up6fdeRH4c4RnXhj4HLmtN06tPFu3pmvB/ZmTDmQe/dnyOPKq1cS3DExll/Pg7PwuXmvB+2vksFhTTyRh2nKufQtIwrga48dqlpVFHU4u29l1MdCO5K27fJ6O/3PtnSlxhDgKuNXaxsA5fVYqT3pXRNsnZ34TDfLnZt5sr7BrMGNAqQTTXsHPwqtbt6lhYelQvGlFK+bty58rm7nwIMFkHXTtIm/VX81BH0G1BJydTgsl92RkxKuL9mIG05NHP5La2Vik6l5uo+GffpFePkZ8IBjQCR3k6yc+ZWjzZ0YbmHpJTkl1t2u36s2VmWvHl/6EZ7B+kGrPgdVvgt1UkiliNj4Sv9VrN8Y+mnIlFkdYcRlfKIIfeN4vhmjsgBoONMgB6Qy71Iqyepw8R8PVoZ0pKXJ+nNDpx0tgzMuyFAc43nh0UOa4ENbi1prgauunCvoFZqTW7kabK2dVWLXzYtKOea48M+3PuIWqx7QtxoLXCjhULKbTuiDEYeliIOnVV0Y/kRGTqt1tcKj+y3309UUFs2dN2p1G4cYzW8rdCbzXMrl7UjQf1tHdpM+E5DcQr1DHV6f5JXXQzzOP2NhJtvE4d03/1U/qj3rh4GVFmHRXdo8gkhoFAQABlQHHMk8VXxmKliJ70srHf2Dsens2g4wlvbzve1srZZG16DWP5ZaEKGRWGw9tF2XGHAH2n0G4KKnG7Itt4rcpbq1ll3fzfwR6IVk8eEAQBAEAQHnvrGsrya0IgGDYh7Ru55LuAviI3iq01aTPZ7Kr/Mw8HxX0Puzjy+nvIvGtJoJAFSPzVVaKDL1TaMItxSu/fRcxok7EOWiOX3PyW26kVZ4yvPTLl6vyM6yujU5NUMGDFiA+sG0Z/9HYfyWyXQjn1cRTi71KmfV7b5k2sfqamXUMeLDgjY0GI/ccgOZW+43qUZ7Tpx/pwz6X7b5k3sjqps+FQva+O7PzjtH4GUBHcarZU0inU2hXnxt2e7kxkZCFBbdgw2Q27GNa0cgFuU23J3ZkoYCAIAgCAIAgCAIDS250Vk5v8ArwGOd+sC6/420PisOKepLTrVKbvB2OfW51MjEykx7kYVHCI0YDe071o6fQdGntWWlSN/fvoIDbXRWflK9tAfcHrgX4e+8K3eNFG4tao6tDaVOeSl3S/f7M1MOc/BiORx8VpunThi2tfVc8+bMqHMg9+7PkcVq4luniIy/b0dnyMyyZJsWLWINBmm7ZgDQGm+tO8raJXxEd/XpyXvoWdumXUa61rpJc0XC4mgGApsIyOpE22R4mhCjTUaeT6tO9aMtScOpaCMh2jt5waOAqUkxhabk4prT6n2vKK7ln2lq2nGrRQ0GNdVfz5qXD2zZw/iqdV7kFF7izbtlfReH3MGDHc30SR8uSnlCMtUeZwu0cThv6U2l0arweRnQbWPrNr3jPkoZYfoZ6PC/FTWWIhfrj6P1RsZeOHirdyryi4uzPVYTGUsVT+ZSd19y6sFoIDMsezzMRmQg5rLxxc7Jo2ka9lO9Q160aMN+RUxuKWGpb9r8EV23Zhl4ly+HjEBwFMqVwqdo8VFhMUsRG9rMr7P2h+JbjJWaNbEdQd+Q/O7PgraL9SVo5a+/wCTr3UvYvZSrplwo6YcLtdUJlWs5m87vqFapqyPBbUxHzq7toskdDUhzggCAIAgCAh/WB0NM+GOhvayIwObpg3XNNDR1MRQiozzPCOcN46ezdo/hHJOO9GWq7NPMjNkdTEMUMxMud+2E0NG686pI4BFT6TM9qz0pxS5/sTWyOhMhLUMOWh3hiHPF91doc+tOFFsopaFKpiatT80n9vAkIC2IAgCAIAgCAIAgCAIAgCAIAgCAICNW50EkJqpiQGtecb8PQfXaS3Bx9oFauKZPSxNWl+SXp4HPrc6moramVjtiD9EUXXcHtwJ4NWjpvgdKltXhVj4ej9TnVsWHMSrrkzBdDca0vUId7LgSHcDgtGranRoV6VZfS7vr15mPAlokQ6DHxA0VeGtc663aaeiNWOGKwS1KsYSjvvJ9L4dV/DvMmBMNqSCNIg0dhqAwORyyWljqUq0N6Uov8zvZ5cEsnpw0MkxBrw35c8lqW/mL+7Lt9dDHjWex2qh2j7ZKSNWUTmYrYmCxGbhZ9Mcv25GDGstw9Eh3gfspo4hcTzeK+Fq0M6ElJdDyfp5GwgMEOHjqBJ35qCT35HqsLRhgMGoy/tV326s1DJ14Nbxxx2jkVbdKLVrHhIbdxsKjmp6u9nmuxX07rGZBtb9TeI+xUMsO+B3sL8VQeWIhbrjmvB+rNhKzoJBY+jhlt5FV6lK63ZrI70MTg8fDcjJST4aPwyZfjRnPNXOLjljTDcBgo6dKFNWirE2GwdLDpqmtT5IyDpmYhSzM4rxDrsBxe73WVPEqeCu7FTaeJ+VSk+5dr15WXeelpSWbCYyGwXWMa1jQNTWigHIK2eDbu7svIYCAIAgCAIAgCAIAgCAIAgCAIAgCAIAgCAIAgCAIAgCAIC1My7IjS2Ixr2nNrgCORQFElIQoIuwobIYOYY1rRyAQy23qaq3Oh8lN1MaXYXH126L+L20J41WHFPUkpV6lL8kre+ggNr9Trm1MnMkbIcYYfG0f8eKjdK51MPtmrTyfL0eXkQa1+jc7KVMeWeGj/Eh4s3ktq0e9RRuDR2MPtejPLR+D8H9L8TWQpsHIg+B8cDzUe6daGJjLivJ88n4l0uBwOvCh1/dYJnKEluy48Hx+zMWNZjDlVp8OSljWkji4r4cwdbOC3H1aeD+1jBjWa9uQvDu+ynjXi9TzeK+GsXSzp2murJ+D+zZiFprSmOzWpbq1zifIqxqKm4tSvpo7kihi6wA40HMrnvNn1elB0aMYt3aSXW3+50XqUsW9FjTjhgzzEP2jR0Rw/i3iVPSXE8jtvEb1RUk9Ne3jz+x15THCCAIAgCAIAgCAIAgCAIAgCAIAgCAIAgCAIAgCAIAgCAIAgCAIAgCAICN250FkJqpiS7Q8+vD0HV2ktwd7wK1cUyeliatLKMvTwIFa/U9FZUykyHD/LjCh+JoIPwjetHS6DqYfbU4ZSWXV6PLyIPa1iTkp/5EvEhgeu0Vh/EKt8QVE4NanZw+1aU8k7Pqy5PLwZhQpoHWD4HkfutLHUhiVLLXk/B/ZsuVaTqqMqjHxWCX/jm1dZrS6zXiUxycA0VdhQDMuJo0U3/JZSIcXWVODk+Gfp69x6N6JWKJOUgy4zY0XztedJ54uJ8FcSsrHzyrUdSbk+Jt1kjCAIAgCAIAgCAIAgCAIAgCAIAgCAIAgCAIAgCAIAgCAIAgCAIAgCAIAgCA+EICLW51eWfM1LoAhvNdOFoGp1kDRce8grVxTLFLFVaeUZZdDzRArZ6oZhlTKx2xW/5cUXXbgcWk/Co3S6Dq0NtSS3ZrLxXg/szG6uuiUd1oNMzCDGy3nHC8w1iZMyJyNXV/akINO7Nto7SjWoqEOOtr/fw4ncFMcAIAgCA//9k=;" parent="2" vertex="1">
                    <mxGeometry x="190" y="137.5" width="325" height="162.5" as="geometry"/>
                </mxCell>
                <mxCell id="8" value="Find a Pokemon" style="rounded=1;whiteSpace=wrap;html=1;" parent="2" vertex="1">
                    <mxGeometry x="292.5" y="310" width="120" height="40" as="geometry"/>
                </mxCell>
            </root>
        </mxGraphModel>
    </diagram>
</mxfile>